<svg width="20" height="21" viewBox="0 0 20 21" fill="none" xmlns="http://www.w3.org/2000/svg">
<path d="M5.41651 14.8514L11.6665 11.9347L14.5832 5.68469L8.33317 8.60136L5.41651 14.8514ZM9.99984 11.1014C9.76373 11.1014 9.56595 11.0214 9.4065 10.8614C9.24706 10.7014 9.16706 10.5036 9.1665 10.268C9.16595 10.0325 9.24595 9.83469 9.4065 9.67469C9.56706 9.51469 9.76484 9.43469 9.99984 9.43469C10.2348 9.43469 10.4329 9.51469 10.594 9.67469C10.7551 9.83469 10.8348 10.0325 10.8332 10.268C10.8315 10.5036 10.7515 10.7016 10.5932 10.8622C10.4348 11.0227 10.2371 11.1025 9.99984 11.1014ZM9.99984 18.6014C8.84706 18.6014 7.76373 18.3825 6.74984 17.9447C5.73595 17.5069 4.854 16.9133 4.10401 16.1639C3.354 15.4144 2.76039 14.5325 2.32317 13.518C1.88595 12.5036 1.66706 11.4202 1.6665 10.268C1.66595 9.1158 1.88484 8.03247 2.32317 7.01803C2.76151 6.00358 3.35512 5.12164 4.10401 4.37219C4.85289 3.62275 5.73484 3.02914 6.74984 2.59136C7.76484 2.15358 8.84817 1.93469 9.99984 1.93469C11.1515 1.93469 12.2348 2.15358 13.2498 2.59136C14.2648 3.02914 15.1468 3.62275 15.8957 4.37219C16.6446 5.12164 17.2384 6.00358 17.6773 7.01803C18.1162 8.03247 18.3348 9.1158 18.3332 10.268C18.3315 11.4202 18.1126 12.5036 17.6765 13.518C17.2404 14.5325 16.6468 15.4144 15.8957 16.1639C15.1446 16.9133 14.2626 17.5072 13.2498 17.9455C12.2371 18.3839 11.1537 18.6025 9.99984 18.6014ZM9.99984 16.9347C11.8609 16.9347 13.4373 16.2889 14.729 14.9972C16.0207 13.7055 16.6665 12.1291 16.6665 10.268C16.6665 8.40691 16.0207 6.83053 14.729 5.53886C13.4373 4.24719 11.8609 3.60136 9.99984 3.60136C8.13873 3.60136 6.56234 4.24719 5.27067 5.53886C3.979 6.83053 3.33317 8.40691 3.33317 10.268C3.33317 12.1291 3.979 13.7055 5.27067 14.9972C6.56234 16.2889 8.13873 16.9347 9.99984 16.9347Z" fill="white"/>
</svg>
