<svg width="41" height="40" viewBox="0 0 41 40" fill="none" xmlns="http://www.w3.org/2000/svg">
<path fill-rule="evenodd" clip-rule="evenodd" d="M20.5 40C31.5457 40 40.5 31.0457 40.5 20C40.5 8.9543 31.5457 0 20.5 0C9.4543 0 0.5 8.9543 0.5 20C0.5 31.0457 9.4543 40 20.5 40ZM22.7391 15.6352H23.4796H29.5909V30.3771C29.5909 31.2294 28.8453 31.9195 27.9246 31.9195H13.4795C12.5587 31.9195 11.8131 31.2294 11.8131 30.3771V10.8356C11.8131 9.98333 12.5587 9.29323 13.4805 9.29323H22.7391V15.6352ZM15.7009 25.4917H22.9225V24.2058H15.7009V25.4917ZM15.702 22.4061H25.7021V21.1202H15.702V22.4061ZM15.702 19.3204H25.7021V18.0354H15.702V19.3204ZM29.5909 14.9498H23.4796V9.29323L29.5909 14.9498Z" fill="#959CAE"/>
</svg>
