<svg width="30" height="36" viewBox="0 0 30 36" fill="none" xmlns="http://www.w3.org/2000/svg">
<path d="M14.1887 16.9568C14.9387 18.2905 13.2511 18.6716 12.501 18.7668C11.3759 18.8621 11.0946 18.1952 11.2822 17.3379C11.3759 17.0521 11.5634 16.7663 11.751 16.5758C11.9385 16.3853 12.3135 16.1947 12.5948 16.1947C12.876 16.1947 13.2511 16.1947 13.4386 16.3853C13.8136 16.4805 14.0011 16.6711 14.1887 16.9568Z" fill="#366AFE"/>
<path d="M18.689 14.5753C17.8452 21.2436 29.2836 19.8147 29.0961 25.0541C30.2212 23.5299 30.69 19.5289 27.4085 17.4331C24.4082 15.5279 20.5642 16.5758 18.689 14.5753Z" fill="#366AFE"/>
<path d="M25.3458 12.0032C25.2521 11.9079 25.1583 11.9079 25.1583 11.8127C25.1583 11.9079 25.2521 12.0032 25.3458 12.0032Z" fill="#366AFE"/>
<path d="M27.971 16.8616C27.8773 16.6711 27.7835 16.4805 27.596 16.29C27.221 15.7184 26.6584 15.3374 26.0021 15.2421C25.6271 15.1469 25.1583 15.0516 24.6895 15.0516C24.2207 15.0516 23.8457 14.9563 23.3769 14.9563C22.4393 14.8611 21.5955 14.7658 20.6579 14.5753C20.4704 14.48 20.1891 14.48 20.0016 14.3848C19.9079 14.3848 19.8141 14.2895 19.6266 14.2895C19.5328 14.1942 19.4391 14.1942 19.2516 14.099C18.7828 13.9084 18.4077 13.5274 18.1265 13.2416C17.4702 12.5748 16.9076 11.8127 16.3451 11.1459C15.7825 10.3838 15.3137 9.71692 14.6574 9.05008C14.0949 8.38325 13.3448 7.81168 12.5948 7.43063C11.8447 7.04958 10.9071 6.76379 10.0633 6.66853C11.0009 6.57327 11.9385 6.66853 12.7823 7.04958C13.6261 7.43063 14.4699 7.90694 15.1262 8.57377C15.595 8.95482 15.97 9.43113 16.3451 9.90744C19.2516 9.33587 21.5018 9.81218 23.2831 10.8601C23.8457 11.1459 24.4082 11.5269 24.877 12.0032C24.9708 12.0985 25.0645 12.0985 25.0645 12.1937C25.4396 12.5748 25.8146 12.9558 26.0959 13.3369C27.4085 14.5753 27.971 16.0042 27.971 16.8616Z" fill="#366AFE"/>
<path d="M10.3446 7.43063C11.0947 7.52589 11.8447 7.81168 12.3135 8.38325C12.7823 8.95482 12.9698 9.71692 13.1573 10.3838C13.2511 10.9553 13.3448 11.5269 13.5323 12.0032C13.6261 12.289 13.8136 12.4795 13.9074 12.67C14.0011 12.8606 14.1887 13.0511 14.2824 13.2416V13.4321C14.0011 13.7179 13.3448 13.4321 13.0636 13.2416C12.5948 13.0511 12.2197 12.67 11.8447 12.289C10.8134 11.1459 10.2508 9.43113 10.2508 7.90694C10.2508 7.81168 10.3446 7.62115 10.3446 7.43063Z" fill="#366AFE"/>
<path d="M22.5331 20.7673C20.9392 25.2446 28.1585 28.293 25.4396 32.8656C28.1585 31.7225 29.4712 28.1978 28.3461 25.4352C27.4085 22.9583 24.4082 22.0057 22.5331 20.7673Z" fill="#366AFE"/>
<path d="M13.0636 26.5783C13.5323 26.2925 14.0011 26.0067 14.4699 25.721C14.9387 25.5304 15.5013 25.3399 16.0638 25.2446C17.0951 25.0541 18.2202 24.9589 19.0641 24.5778C19.5328 24.3873 19.9079 24.1968 20.2829 23.8157C20.6579 23.5299 20.8454 23.1489 21.033 22.6726C21.2205 22.1963 21.2205 21.7199 21.2205 21.2436C21.2205 20.6721 21.033 20.1957 20.8455 19.7194C21.2205 20.1005 21.5018 20.6721 21.6893 21.2436C21.8768 21.8152 21.8768 22.3868 21.783 22.9583C21.6893 23.5299 21.3142 24.1015 20.9392 24.5778C20.5642 24.9589 20.0016 25.3399 19.4391 25.5304C18.8765 25.721 18.314 25.8162 17.7514 25.9115C17.1889 25.9115 16.7201 26.0067 16.1576 26.0067C15.1262 26.0067 14.0949 26.1973 13.0636 26.5783Z" fill="#366AFE"/>
<path d="M23.1894 34.4851C23.0019 34.5803 22.9081 34.7709 22.7206 34.8661C22.5331 34.9614 22.3456 35.0566 22.1581 35.1519C21.783 35.3424 21.3142 35.4377 20.8455 35.4377C19.6266 35.4377 18.7828 34.4851 18.314 33.4372C17.939 32.7703 17.7514 32.0083 17.3764 31.3414C16.8139 30.3888 15.7825 29.6267 14.6574 29.722C14.1887 29.8172 13.7199 30.0077 13.5323 30.3888C12.876 31.4367 13.8136 32.9609 15.1262 32.7703C15.22 32.7703 15.3137 32.7704 15.4075 32.6751C15.5013 32.6751 15.595 32.5798 15.6888 32.4846C15.8763 32.294 15.97 32.1035 16.0638 31.913C16.1576 31.7225 16.1576 31.4367 16.1576 31.1509C16.0638 30.8651 15.97 30.6746 15.7825 30.5793C16.0638 30.6746 16.2513 30.8651 16.3451 31.1509C16.2513 31.6272 16.2513 31.913 16.2513 32.1988C16.1576 32.4846 16.0638 32.7703 15.8763 32.9609C15.7825 33.0561 15.6888 33.1514 15.5013 33.2467C15.4075 33.3419 15.22 33.4372 15.1262 33.4372C14.845 33.5324 14.5637 33.5324 14.2824 33.5324C13.9074 33.4372 13.4386 33.3419 13.1573 33.0561C12.7823 32.7703 12.501 32.294 12.126 32.0082C11.751 31.5319 11.2822 31.2462 10.7196 30.9604C10.3446 30.7698 9.96956 30.6746 9.59453 30.5793C9.40701 30.5793 9.21949 30.4841 9.03198 30.4841C8.93822 30.4841 8.46943 30.3888 8.46943 30.3888C9.12574 29.8172 9.78204 29.3409 10.4383 28.8646C11.1884 28.3883 11.9385 28.1025 12.7823 27.8167C13.6261 27.5309 14.4699 27.5309 15.4075 27.6262C15.8763 27.7215 16.2513 27.8167 16.7201 28.0072C17.1889 28.1978 17.5639 28.4836 17.939 28.7693C18.314 29.1504 18.5953 29.5314 18.7828 29.9125C18.9703 30.2935 19.0641 30.7698 19.1578 31.2462C19.4391 32.5798 19.3453 34.6756 21.033 34.9614C21.1267 34.9614 21.2205 34.9614 21.3142 34.9614H21.5955C21.783 34.9614 21.9705 34.9614 22.1581 34.8661C22.4393 34.8661 22.8144 34.6756 23.1894 34.4851Z" fill="#366AFE"/>
<path d="M11.6572 14.1942C11.5634 14.48 11.4697 14.6705 11.3759 14.8611C11.0946 15.2421 10.7196 15.5279 10.3446 15.7184C9.96956 15.909 9.59453 16.0042 9.12574 16.0042C9.03198 16.0042 8.93822 16.0042 8.84447 16.0042C8.56319 16.0042 8.37568 16.0995 8.0944 16.29C7.90689 16.4805 7.71937 16.6711 7.71937 16.9568C7.71937 17.0521 7.62561 17.2426 7.62561 17.3379C7.62561 17.7189 7.53186 18.0047 7.53186 18.481C7.4381 19.2431 7.25058 19.91 6.96931 20.5768C6.59428 21.4342 6.12549 22.1963 6.21925 23.1489C6.31301 23.8157 6.59428 24.292 7.06307 24.6731C7.81313 25.5304 9.59453 25.9115 9.2195 27.912C8.93822 29.1504 6.96931 30.3888 4.25034 30.8651C4.53161 30.8651 3.87531 29.722 3.87531 29.6267C3.59403 29.1504 3.219 28.6741 3.03149 28.1978C2.5627 27.2451 2.37518 26.0067 2.5627 24.9589C2.75021 23.8157 3.59404 22.9583 4.25034 22.0057C5.09416 20.9578 5.93798 19.6242 6.12549 18.1952C6.12549 17.9095 6.21925 17.4331 6.31301 17.0521C6.40676 16.5758 6.50052 16.1947 6.68804 15.7184C6.7818 15.4326 6.96931 15.2421 7.25058 14.9563C7.34434 14.8611 7.4381 14.6705 7.4381 14.5753C7.4381 14.3848 7.4381 14.2895 7.34434 14.099L2.93773 6.0017L9.31325 14.0037C9.40701 14.099 9.50077 14.1942 9.59453 14.1942C9.68828 14.2895 9.78204 14.2895 9.96956 14.2895C10.0633 14.2895 10.1571 14.2895 10.3446 14.1942C10.4383 14.099 10.5321 14.099 10.6259 14.0037C10.7196 13.9085 10.7196 13.8132 10.7196 13.6227C10.7196 13.5274 10.7196 13.3369 10.6259 13.2416C10.2508 12.67 9.78204 12.1937 9.31325 11.6222L4.53161 5.62065L0.125 0.000183105L4.90664 5.2396L9.96956 10.9553C10.5321 11.6222 11.0946 12.1937 11.6572 12.9558L11.751 13.0511V13.2416C11.751 13.6227 11.751 13.9085 11.6572 14.1942Z" fill="#366AFE"/>
<path d="M13.1573 32.9609C12.876 32.6751 12.5948 32.3893 12.3135 32.1035C12.5948 32.4846 12.7823 32.7703 13.1573 32.9609Z" fill="#366AFE"/>
</svg>
