<svg width="23" height="23" viewBox="0 0 23 23" fill="none" xmlns="http://www.w3.org/2000/svg">
<path d="M16.5961 14.0707C16.6841 13.3447 16.75 12.6187 16.75 11.8707C16.75 11.1227 16.6841 10.3967 16.5961 9.67073H20.314C20.49 10.3747 20.6 11.1117 20.6 11.8707C20.6 12.6297 20.49 13.3667 20.314 14.0707M14.649 20.1867C15.309 18.9657 15.815 17.6457 16.167 16.2707H19.412C18.3463 18.1058 16.6556 19.4959 14.649 20.1867ZM14.374 14.0707H9.22605C9.11605 13.3447 9.05005 12.6187 9.05005 11.8707C9.05005 11.1227 9.11605 10.3857 9.22605 9.67073H14.374C14.473 10.3857 14.55 11.1227 14.55 11.8707C14.55 12.6187 14.473 13.3447 14.374 14.0707ZM11.8 20.6267C10.887 19.3067 10.15 17.8437 9.69905 16.2707H13.901C13.45 17.8437 12.713 19.3067 11.8 20.6267ZM7.40005 7.47073H4.18805C5.24255 5.63047 6.93217 4.23809 8.94005 3.55473C8.28005 4.77573 7.78505 6.09573 7.40005 7.47073ZM4.18805 16.2707H7.40005C7.78505 17.6457 8.28005 18.9657 8.94005 20.1867C6.93614 19.4963 5.24877 18.1057 4.18805 16.2707ZM3.28605 14.0707C3.11005 13.3667 3.00005 12.6297 3.00005 11.8707C3.00005 11.1117 3.11005 10.3747 3.28605 9.67073H7.00405C6.91605 10.3967 6.85005 11.1227 6.85005 11.8707C6.85005 12.6187 6.91605 13.3447 7.00405 14.0707M11.8 3.10373C12.713 4.42373 13.45 5.89773 13.901 7.47073H9.69905C10.15 5.89773 10.887 4.42373 11.8 3.10373ZM19.412 7.47073H16.167C15.8222 6.1085 15.3125 4.79344 14.649 3.55473C16.673 4.24773 18.356 5.64473 19.412 7.47073ZM11.8 0.870728C5.71705 0.870728 0.800049 5.82073 0.800049 11.8707C0.800049 14.7881 1.95897 17.586 4.02187 19.6489C5.04332 20.6703 6.25595 21.4806 7.59053 22.0334C8.92511 22.5862 10.3555 22.8707 11.8 22.8707C14.7174 22.8707 17.5153 21.7118 19.5782 19.6489C21.6411 17.586 22.8 14.7881 22.8 11.8707C22.8 10.4262 22.5155 8.99579 21.9627 7.66121C21.4099 6.32663 20.5997 5.114 19.5782 4.09255C18.5568 3.07111 17.3441 2.26085 16.0096 1.70805C14.675 1.15525 13.2446 0.870728 11.8 0.870728Z" fill="white"/>
</svg>
