<svg width="20" height="21" viewBox="0 0 20 21" fill="none" xmlns="http://www.w3.org/2000/svg">
<path d="M10.0002 18.6014C13.3135 18.6014 16.6668 17.4564 16.6668 15.268V5.26803C16.6668 3.07969 13.3135 1.93469 10.0002 1.93469C6.68683 1.93469 3.3335 3.07969 3.3335 5.26803V15.268C3.3335 17.4564 6.68683 18.6014 10.0002 18.6014ZM10.0002 16.9347C6.8985 16.9347 5.00016 15.8555 5.00016 15.268V14.2114C6.28433 14.9097 8.14766 15.268 10.0002 15.268C11.8527 15.268 13.716 14.9097 15.0002 14.2114V15.268C15.0002 15.8555 13.1018 16.9347 10.0002 16.9347ZM10.0002 3.60136C13.1018 3.60136 15.0002 4.68053 15.0002 5.26803C15.0002 5.85553 13.1018 6.93469 10.0002 6.93469C6.8985 6.93469 5.00016 5.85553 5.00016 5.26803C5.00016 4.68053 6.8985 3.60136 10.0002 3.60136ZM5.00016 7.54469C6.28433 8.24303 8.14766 8.60136 10.0002 8.60136C11.8527 8.60136 13.716 8.24303 15.0002 7.54469V8.60136C15.0002 9.18886 13.1018 10.268 10.0002 10.268C6.8985 10.268 5.00016 9.18886 5.00016 8.60136V7.54469ZM5.00016 10.878C6.28433 11.5764 8.14766 11.9347 10.0002 11.9347C11.8527 11.9347 13.716 11.5764 15.0002 10.878V11.9347C15.0002 12.5222 13.1018 13.6014 10.0002 13.6014C6.8985 13.6014 5.00016 12.5222 5.00016 11.9347V10.878Z" fill="white"/>
</svg>
