<svg width="25" height="26" viewBox="0 0 25 26" fill="none" xmlns="http://www.w3.org/2000/svg">
<path d="M21.6973 4.23726C21.6973 4.23726 23.7904 3.4211 23.6159 5.40321C23.5578 6.21938 23.0345 9.07595 22.6275 12.1657L21.2321 21.3184C21.2321 21.3184 21.1159 22.6592 20.0693 22.8925C19.0227 23.1256 17.453 22.0763 17.1622 21.8431C16.9296 21.6682 12.8016 19.0448 11.3481 17.7623C10.9411 17.4125 10.4759 16.7129 11.4062 15.8967L17.5111 10.067C18.2088 9.36745 18.9065 7.73512 15.9994 9.71724L7.85958 15.2555C7.85958 15.2555 6.92932 15.8385 5.18511 15.3138L1.40588 14.1478C1.40588 14.1478 0.0104838 13.2734 2.39429 12.3989C8.20846 9.6589 15.3599 6.86062 21.6973 4.23726Z" fill="white"/>
</svg>
