<svg width="24" height="24" viewBox="0 0 24 24" fill="none" xmlns="http://www.w3.org/2000/svg">
<path d="M20.7099 3.65451C20.7099 3.65451 22.6524 2.89701 22.4899 4.73651C22.4364 5.49401 21.9509 8.14551 21.5729 11.013L20.2779 19.508C20.2779 19.508 20.1699 20.7525 19.1984 20.969C18.2274 21.185 16.7704 20.2115 16.5004 19.995C16.2844 19.8325 12.4534 17.3975 11.1044 16.2075C10.7264 15.8825 10.2944 15.2335 11.1584 14.476L16.8244 9.06501C17.4719 8.41501 18.1194 6.90001 15.4214 8.74001L7.8664 13.88C7.8664 13.88 7.0029 14.4215 5.3844 13.9345L1.8764 12.852C1.8764 12.852 0.581403 12.0405 2.7939 11.229C8.1904 8.68601 14.8279 6.08901 20.7094 3.65401" fill="#101114"/>
</svg>
