<svg width="97" height="13" viewBox="0 0 97 13" fill="none" xmlns="http://www.w3.org/2000/svg">
<path fill-rule="evenodd" clip-rule="evenodd" d="M45.0016 0.116292C42.764 0.629083 41.7469 2.29566 42.3572 4.28272C42.6284 5.11601 43.4421 6.0134 44.6626 6.65439C46.7646 7.80817 47.4426 8.25686 47.7816 8.96195C48.0529 9.53884 48.1207 9.73114 47.985 10.308C47.646 11.59 46.6967 12.231 45.3406 12.231C43.9845 12.231 43.0353 11.5259 42.764 10.308C42.6962 9.79524 42.5606 9.66704 42.3572 9.66704C42.086 9.66704 42.0182 9.79524 42.0182 11.0131V12.3592L42.8996 12.6156C44.3236 13.0643 46.2899 13.0002 47.4426 12.4874C49.748 11.4618 50.6295 9.47474 49.6124 7.61587C49.2056 6.91078 48.2563 6.14159 46.6289 5.18011C44.866 4.15453 44.1201 3.44944 43.9845 2.74435C43.7811 1.59057 44.866 0.693183 46.3577 0.693183C47.5104 0.693183 47.9851 0.949577 48.3919 1.78286C48.6631 2.29566 48.7987 2.48795 49.1377 2.48795C49.4768 2.48795 49.5446 2.42385 49.409 2.10336C49.3412 1.91106 49.2734 1.39827 49.2734 1.01368C49.2734 0.500886 49.2055 0.244489 49.0021 0.18039C48.5275 -0.0119073 45.6119 -0.0760053 45.0016 0.116292ZM0.25 0.564985C0.25 0.821381 0.385612 0.88548 0.656834 0.88548C1.4705 0.88548 1.5383 1.07778 1.60611 5.757C1.67391 9.79523 1.74172 10.1157 2.08075 10.7567C2.55539 11.59 3.23344 12.1669 4.25052 12.6156C4.92858 12.9361 5.40322 13.0002 6.82713 13.0002C8.31885 13.0002 8.65788 12.9361 9.47155 12.5515C10.014 12.2951 10.692 11.8464 10.9633 11.5259C11.9125 10.4362 12.0482 9.85933 12.116 5.37241C12.2516 1.01368 12.2516 0.949578 12.9974 0.949578C13.2008 0.949578 13.2687 0.82138 13.2687 0.629083C13.2687 0.308588 13.133 0.308588 11.2345 0.308588C9.33593 0.308588 9.20032 0.308588 9.20032 0.629083C9.20032 0.885479 9.33594 0.949579 9.74277 1.01368C10.6242 1.07778 10.692 1.39827 10.692 5.37241C10.692 9.41064 10.5564 10.1798 9.60715 11.0131C8.79349 11.7823 8.11544 12.0387 6.96274 12.0387C5.33541 12.0387 4.11491 11.3336 3.77588 10.0516C3.64027 9.60294 3.57247 8.06456 3.64027 5.30831L3.70808 1.20597L4.31833 1.01368C4.65736 0.88548 4.92858 0.693183 4.99638 0.564985C5.06419 0.308589 4.79297 0.308588 2.691 0.308588C0.385612 0.244489 0.25 0.24449 0.25 0.564985ZM16.0487 0.564985C16.0487 0.821381 16.1843 0.88548 16.5233 0.88548C17.4048 0.88548 17.8794 1.20597 18.0828 1.91106C18.2184 2.29566 18.2185 4.15453 18.2185 6.78258C18.1506 11.5259 18.0828 11.8464 17.0658 12.0387C16.7267 12.1028 16.5911 12.231 16.5911 12.4233C16.5911 12.6797 16.7267 12.7438 18.9643 12.7438C21.1341 12.7438 21.3375 12.7438 21.3375 12.4874C21.3375 12.2951 21.1341 12.1669 20.5916 12.0387C19.9136 11.8464 19.8458 11.7823 19.6424 11.2695C19.3711 10.5003 19.3711 3.25714 19.5746 3.32124C19.6424 3.32124 20.3204 3.96223 21.0663 4.79552C21.8121 5.6288 23.7785 7.74407 25.5414 9.47474C28.2537 12.231 28.7283 12.7438 29.1351 12.7438H29.6098L29.6776 7.10308C29.7454 3.06484 29.8132 1.39827 29.9488 1.27007C30.0844 1.14187 30.4234 1.01368 30.6947 0.949578C31.0337 0.885479 31.2371 0.757281 31.2371 0.629083C31.2371 0.436786 30.8303 0.372688 28.9317 0.372688C26.6941 0.308589 26.6263 0.308588 26.6263 0.629083C26.6263 0.885479 26.7619 0.949578 27.0332 0.949578C27.2366 0.949578 27.6434 1.14188 27.9146 1.33417L28.3893 1.71877L28.4571 5.5647C28.4571 7.74407 28.4571 9.41064 28.3893 9.41064C28.3215 9.41064 27.779 8.89785 27.2366 8.32096C26.6941 7.74407 25.1346 6.07749 23.7785 4.66732C22.4224 3.25714 20.9307 1.71877 20.456 1.20597L19.6424 0.308588H17.8794C16.1165 0.244489 16.0487 0.24449 16.0487 0.564985ZM33.8137 0.564985C33.8137 0.821381 33.9493 0.88548 34.2883 0.88548C34.5596 0.88548 34.8986 1.01368 35.102 1.14187C35.441 1.33417 35.441 1.65467 35.5088 6.07749C35.5767 11.59 35.5088 11.9105 34.4918 12.0387C34.0171 12.1028 33.8137 12.231 33.8137 12.4233C33.8137 12.6797 34.0171 12.7438 36.3903 12.7438C38.8313 12.7438 38.9669 12.7438 38.9669 12.4233C38.9669 12.1669 38.8313 12.1028 38.5601 12.1028C38.3567 12.1028 38.0176 11.9746 37.8142 11.8464C37.4752 11.6541 37.4752 11.3336 37.4074 6.59029C37.3396 1.71876 37.3396 1.52647 37.6786 1.20597C37.882 1.01368 38.2211 0.88548 38.4245 0.88548C38.7635 0.88548 38.8313 0.821381 38.8313 0.564985C38.8313 0.24449 38.6957 0.24449 36.2547 0.24449C33.9493 0.24449 33.8137 0.24449 33.8137 0.564985ZM51.6465 0.564985C51.7144 0.757282 51.85 0.88548 52.1212 0.88548C52.3246 0.88548 52.6636 1.07778 52.867 1.27007C53.0705 1.46237 54.2232 4.09043 55.5115 7.23128L57.749 12.8079L58.3593 12.872L58.9695 12.9361L60.5291 8.96195C61.4105 6.78259 62.2242 4.79552 62.292 4.60322C62.4954 4.21863 62.4954 4.28272 63.0379 5.5647C63.3091 6.33389 64.1227 8.25686 64.8008 9.92344L66.0213 12.9361H66.5638C66.835 12.9361 67.1062 12.872 67.174 12.7438C67.2418 12.6156 67.9877 10.7567 68.9369 8.57735C69.8184 6.39799 70.8355 3.96223 71.1745 3.19304C71.9204 1.39827 72.056 1.20598 72.5984 1.01368C72.8697 0.949579 73.0731 0.757281 73.0731 0.629083C73.0731 0.436786 72.734 0.372688 71.0389 0.372688C69.1404 0.372688 69.0047 0.372688 69.0047 0.693183C69.0047 0.949579 69.1404 1.01368 69.4116 1.01368C70.0896 1.01368 70.3608 1.20597 70.3608 1.59057C70.3608 1.91106 67.1062 10.1798 66.9028 10.3721C66.7672 10.5003 63.8515 2.80845 63.7837 2.03926C63.6481 1.33417 63.9871 1.01368 64.733 1.01368C65.0042 1.01368 65.1398 0.949579 65.1398 0.693183C65.1398 0.372688 65.0042 0.372688 62.4954 0.372688C59.9866 0.372688 59.851 0.372688 59.851 0.693183C59.851 0.88548 59.9866 1.01368 60.1222 1.01368C60.6647 1.01368 61.3427 1.52647 61.5461 1.97516C61.8174 2.68025 61.6139 3.38534 60.0544 7.23128L58.7661 10.5003L58.4949 9.85933C58.3593 9.53884 57.5456 7.48767 56.732 5.37241C55.1046 1.20597 55.1046 1.01368 56.1895 1.01368C56.5963 1.01368 56.6641 0.949579 56.6641 0.693183C56.6641 0.372688 56.5285 0.372688 54.1553 0.372688C51.5787 0.244491 51.5109 0.24449 51.6465 0.564985ZM85.9561 0.693183C85.9561 0.693183 85.9561 0.885479 85.9561 0.949578C85.9561 1.01368 86.1595 1.01368 86.1595 1.01368C86.2951 1.01368 86.3629 1.07778 86.4986 1.07778C87.041 1.20597 87.38 1.27007 87.5156 1.59057C87.5834 1.78286 87.6512 2.55205 87.6512 6.59029C87.6512 10.8208 87.6512 11.3336 87.5156 11.59C87.38 11.9105 87.1088 12.1028 86.4307 12.2951C86.4307 12.2951 86.1595 12.3592 86.0917 12.4233C86.0239 12.4874 86.0239 12.6156 86.0239 12.6156C86.0239 12.6156 86.0239 12.7438 86.0917 12.8079C86.1595 12.872 86.3629 12.872 86.3629 12.872H88.0581H90.9059C90.9059 12.872 91.0415 12.872 91.1093 12.8079C91.1771 12.7438 91.1771 12.6156 91.1771 12.6156C91.1771 12.6156 91.1771 12.4874 91.1093 12.4233C91.0415 12.3592 90.7703 12.2951 90.7703 12.2951C90.16 12.1669 89.821 11.9746 89.6854 11.6541C89.5498 11.3977 89.5498 10.8208 89.5498 9.47474V7.55177C89.6176 7.61587 89.6854 7.61587 89.7532 7.67997C90.0922 7.87227 90.4991 8.19276 91.9908 8.19276C93.8215 8.25686 94.9064 7.48767 95.5845 6.59029C96.2625 5.6929 96.466 4.28272 95.9913 2.74435C95.5167 1.27007 94.0928 0.308589 92.1264 0.24449C91.1093 0.180391 89.5498 0.244489 88.7361 0.308588H88.5327C87.7869 0.308588 86.8376 0.436786 86.3629 0.436786C86.2273 0.436786 86.2273 0.436785 86.1595 0.500884C85.9561 0.629082 85.9561 0.693183 85.9561 0.693183ZM93.4825 6.59029C94.2284 5.9493 94.2284 4.92372 94.2284 4.21863C94.1606 3.19304 93.6859 1.20597 91.2449 1.20597C90.6347 1.20597 89.482 1.27007 89.4142 2.03926C89.3464 2.16746 89.3464 3.12894 89.3464 4.53912V6.84668L89.6176 6.97488C89.7532 7.03898 89.9566 7.10308 90.2279 7.16718C91.2449 7.42357 92.7367 7.23128 93.4825 6.59029ZM77.8873 0.436786C78.0907 0.372687 78.2263 0.308588 78.2263 0.308588C78.2263 0.308588 78.4975 0.18039 78.5653 0.308588C78.5653 0.372687 78.7009 0.564985 78.9721 1.20597C79.0399 1.33417 79.1078 1.46237 79.1078 1.59057C79.4468 2.48795 79.9892 3.76993 80.2605 4.47502C80.5317 5.18011 81.0741 6.46209 81.481 7.48767C81.8878 8.44916 82.3624 9.66704 82.6336 10.2439C82.8371 10.8208 83.1761 11.3336 83.2439 11.4618C83.3117 11.5259 83.3117 11.59 83.3795 11.6541C83.5829 11.9105 83.7863 12.2951 84.261 12.3592C84.261 12.3592 84.6 12.4233 84.6678 12.4874C84.7356 12.5515 84.7356 12.6156 84.7356 12.6156V12.8079C84.7356 12.8079 84.7356 12.872 84.6678 12.872C84.6678 12.9361 84.5322 12.872 84.5322 12.872H81.6844H79.6502C79.6502 12.872 79.5824 12.872 79.5146 12.872C79.4468 12.872 79.4468 12.7438 79.4468 12.7438V12.6156C79.4468 12.6156 79.4468 12.4874 79.5146 12.4233C79.5824 12.3592 79.9214 12.2951 79.9214 12.2951C80.5317 12.231 80.8029 11.7823 80.8707 11.5259V11.4618C81.0063 11.2054 80.9385 11.0131 80.3283 9.66704C79.9214 8.76965 79.7858 8.51326 79.718 8.44916C79.6502 8.44916 78.5653 8.44916 77.4126 8.44916H75.175L75.0394 8.76965C74.6326 9.79524 74.2936 10.7567 74.2936 11.0131C74.158 11.5259 74.3614 12.1669 75.175 12.2951C75.175 12.2951 75.5141 12.3592 75.5819 12.4233C75.6497 12.4874 75.7175 12.6156 75.7175 12.6156V12.7438C75.7175 12.7438 75.7175 12.8079 75.6497 12.872C75.5819 12.9361 75.4463 12.872 75.4463 12.872H73.3443H71.3101C71.3101 12.872 71.2423 12.872 71.1745 12.8079C71.1067 12.7438 71.1067 12.6797 71.1067 12.6797V12.5515C71.1067 12.5515 71.1067 12.4874 71.2423 12.3592C71.3779 12.231 71.6492 12.231 71.6492 12.231C72.1916 12.1669 72.5306 11.59 72.734 11.2695C72.734 11.2695 72.734 11.2054 72.8018 11.2054C72.8697 11.0772 73.2087 10.3721 73.5477 9.60294C73.8867 8.83375 74.2258 7.93637 74.3614 7.67997C74.7682 6.71849 75.175 5.8211 75.7853 4.41092C76.1243 3.64174 76.599 2.48795 76.8702 1.84696L77.3448 0.693183L77.8873 0.436786ZM77.7517 3.19304C77.8873 3.44944 78.0229 3.83403 78.0907 4.02633C78.1585 4.21862 78.4297 4.79552 78.6331 5.30831C78.8365 5.8211 79.1078 6.39799 79.2434 6.65439C79.379 6.91078 79.4468 7.10308 79.4468 7.10308C79.4468 7.10308 78.6331 7.10308 77.616 7.10308C76.4633 7.10308 75.7853 7.10308 75.7853 7.03898C75.7853 7.03898 75.8531 6.91078 75.8531 6.78258C75.9209 6.59029 76.3277 5.5647 77.1414 3.38534C77.277 3.06484 77.4126 2.74435 77.4126 2.68025C77.4804 2.68025 77.5482 2.74435 77.7517 3.19304Z" fill="white"/>
</svg>
