<svg width="24" height="24" viewBox="0 0 24 24" fill="none" xmlns="http://www.w3.org/2000/svg">
<path d="M12 9.6C16.7712 9.6 21.6 7.9512 21.6 4.8C21.6 1.6488 16.7712 0 12 0C7.22882 0 2.40002 1.6488 2.40002 4.8C2.40002 7.9512 7.22882 9.6 12 9.6Z" fill="#366AFE"/>
<path d="M2.40002 9.6002C2.40002 12.7514 7.22882 14.4002 12 14.4002C16.7712 14.4002 21.6 12.7514 21.6 9.6002V7.2002C21.6 10.3514 16.7712 12.0002 12 12.0002C7.22882 12.0002 2.40002 10.3514 2.40002 7.2002V9.6002Z" fill="#366AFE"/>
<path d="M2.40002 14.4C2.40002 17.5512 7.22882 19.2 12 19.2C16.7712 19.2 21.6 17.5512 21.6 14.4V12C21.6 15.1512 16.7712 16.8 12 16.8C7.22882 16.8 2.40002 15.1512 2.40002 12V14.4Z" fill="#366AFE"/>
<path d="M2.40002 19.1998C2.40002 22.351 7.22882 23.9998 12 23.9998C16.7712 23.9998 21.6 22.351 21.6 19.1998V16.7998C21.6 19.951 16.7712 21.5998 12 21.5998C7.22882 21.5998 2.40002 19.951 2.40002 16.7998V19.1998Z" fill="#366AFE"/>
</svg>
