<svg width="25" height="25" viewBox="0 0 25 25" fill="none" xmlns="http://www.w3.org/2000/svg">
<g clip-path="url(#clip0_205_5448)">
<path fill-rule="evenodd" clip-rule="evenodd" d="M23.0938 19.527C24.0312 18.5895 24.5 17.4583 24.5 16.1333C24.5 15.0083 24.15 14.0103 23.45 13.1395C22.75 12.2687 21.8625 11.7083 20.7875 11.4583C21.1292 10.9333 21.3 10.3583 21.3 9.73325C21.3 8.84992 20.9875 8.09575 20.3625 7.47075C19.7375 6.84575 18.9833 6.53325 18.1 6.53325C17.3 6.53325 16.6083 6.79159 16.025 7.30825C15.5333 6.12492 14.7521 5.16659 13.6813 4.43325C12.6104 3.69992 11.4167 3.33325 10.1 3.33325C8.33333 3.33325 6.825 3.95825 5.575 5.20825C4.325 6.45825 3.7 7.96659 3.7 9.73325C3.7 9.85825 3.70833 10.0374 3.725 10.2708C2.75833 10.7208 1.97917 11.402 1.3875 12.3145C0.795833 13.227 0.5 14.2333 0.5 15.3333C0.5 16.8749 1.04792 18.1937 2.14375 19.2895C3.23958 20.3853 4.55833 20.9333 6.1 20.9333H19.7C21.025 20.9333 22.1562 20.4645 23.0938 19.527ZM11.2131 14.7377C11.5519 15.0766 12.0116 15.267 12.4908 15.267C12.97 15.267 13.4296 15.0766 13.7685 14.7377C14.1074 14.3988 14.2978 13.9392 14.2978 13.46C14.2978 12.9808 14.1074 12.5211 13.7685 12.1823C13.4296 11.8434 12.97 11.653 12.4908 11.653C12.0116 11.653 11.5519 11.8434 11.2131 12.1823C10.8742 12.5211 10.6838 12.9808 10.6838 13.46C10.6838 13.9392 10.8742 14.3988 11.2131 14.7377ZM16.3629 13.46C16.3629 13.6304 16.3474 13.7956 16.3268 13.9608L17.4161 14.8178C17.5142 14.8953 17.54 15.0346 17.4781 15.1482L16.4455 16.9346C16.3835 17.0481 16.2441 17.0894 16.1306 17.0481L14.845 16.5267C14.5766 16.7332 14.2978 16.9036 13.9725 17.0378L13.7815 18.406C13.7608 18.5299 13.6524 18.6228 13.5234 18.6228H11.4582C11.3292 18.6228 11.2207 18.5299 11.2001 18.406L11.0091 17.0378C10.6838 16.9087 10.405 16.7332 10.1366 16.5267L8.85103 17.0481C8.73744 17.0894 8.59805 17.0481 8.5361 16.9346L7.50354 15.1482C7.43642 15.0346 7.4674 14.8953 7.56549 14.8178L8.65484 13.9608C8.63419 13.7956 8.6187 13.6304 8.6187 13.46C8.6187 13.2896 8.63419 13.1193 8.65484 12.9437L7.56549 12.1022C7.4674 12.0247 7.43642 11.8853 7.50354 11.7718L8.5361 9.98543C8.59805 9.87185 8.73744 9.82539 8.85103 9.87185L10.1366 10.3881C10.405 10.1868 10.6838 10.0112 11.0091 9.88218L11.2001 8.51404C11.2207 8.39013 11.3292 8.2972 11.4582 8.2972H13.5234C13.5851 8.29703 13.6448 8.31872 13.6921 8.35841C13.7393 8.39809 13.771 8.45323 13.7815 8.51404L13.9725 9.88218C14.2978 10.0112 14.5766 10.1868 14.845 10.3881L16.1306 9.87185C16.2441 9.82539 16.3835 9.87185 16.4455 9.98543L17.4781 11.7718C17.54 11.8853 17.5142 12.0247 17.4161 12.1022L16.3268 12.9437C16.3474 13.1193 16.3629 13.2896 16.3629 13.46Z" fill="#fff"/>
</g>
<defs>
<clipPath id="clip0_205_5448">
<rect width="24" height="24" fill="white" transform="translate(0.5 0.333252)"/>
</clipPath>
</defs>
</svg>
