<svg width="16" height="17" viewBox="0 0 16 17" fill="none" xmlns="http://www.w3.org/2000/svg">
<path d="M0.47998 7.4155C0.47998 5.16287 0.47998 4.03655 0.918373 3.17616C1.30399 2.41933 1.91931 1.80401 2.67614 1.41839C3.53653 0.98 4.66285 0.98 6.91549 0.98H9.12399C11.3766 0.98 12.5029 0.98 13.3633 1.41839C14.1202 1.80401 14.7355 2.41933 15.1211 3.17616C15.5595 4.03655 15.5595 5.16287 15.5595 7.41551V9.62401C15.5595 11.8766 15.5595 13.003 15.1211 13.8634C14.7355 14.6202 14.1202 15.2355 13.3633 15.6211C12.5029 16.0595 11.3766 16.0595 9.12398 16.0595H6.91549C4.66285 16.0595 3.53653 16.0595 2.67614 15.6211C1.91931 15.2355 1.30399 14.6202 0.918373 13.8634C0.47998 13.003 0.47998 11.8766 0.47998 9.624V7.4155Z" fill="black"/>
<path fill-rule="evenodd" clip-rule="evenodd" d="M2.17878 15.3206C1.64916 14.9458 1.21559 14.4466 0.918428 13.8634C0.740079 13.5133 0.634287 13.1193 0.571533 12.6233L0.740006 12.134L1.15282 10.9351H2.42082H5.72036C6.42809 10.9351 7.1886 10.3926 7.41901 9.72347C7.64942 9.05431 7.26248 8.51184 6.55476 8.51184H1.88958L2.71521 6.11402H7.38039C9.4887 6.11402 10.6414 7.73002 9.95499 9.72347C9.51248 11.0086 8.41362 12.1369 7.1237 12.7764L8.25415 16.0595H6.91555C6.47514 16.0595 6.07778 16.0595 5.71704 16.0562L4.77932 13.3329H2.86317L2.17878 15.3206ZM13.2611 9.16623C13.6112 5.83532 11.1799 3.13509 7.8306 3.13509L7.95823 1.92075C11.9818 1.92075 14.9027 5.16466 14.4821 9.16623H13.2611ZM7.60753 5.25664C9.77863 5.25664 11.3547 7.00703 11.1277 9.16624H12.3488C12.6462 6.33637 10.5806 4.0423 7.73516 4.0423L7.60753 5.25664Z" fill="url(#paint0_linear_114_848)"/>
<defs>
<linearGradient id="paint0_linear_114_848" x1="0.571533" y1="1.92075" x2="14.709" y2="15.8704" gradientUnits="userSpaceOnUse">
<stop stop-color="#366AFE"/>
<stop offset="1" stop-color="#00B3FF"/>
</linearGradient>
</defs>
</svg>
