<svg width="16" height="17" viewBox="0 0 16 17" fill="none" xmlns="http://www.w3.org/2000/svg">
<path d="M0.47998 7.4155C0.47998 5.16287 0.47998 4.03655 0.918373 3.17616C1.30399 2.41933 1.91931 1.80401 2.67614 1.41839C3.53653 0.98 4.66285 0.98 6.91549 0.98H9.12399C11.3766 0.98 12.5029 0.98 13.3633 1.41839C14.1202 1.80401 14.7355 2.41933 15.1211 3.17616C15.5595 4.03655 15.5595 5.16287 15.5595 7.41551V9.62401C15.5595 11.8766 15.5595 13.003 15.1211 13.8634C14.7355 14.6202 14.1202 15.2355 13.3633 15.6211C12.5029 16.0595 11.3766 16.0595 9.12398 16.0595H6.91549C4.66285 16.0595 3.53653 16.0595 2.67614 15.6211C1.91931 15.2355 1.30399 14.6202 0.918373 13.8634C0.47998 13.003 0.47998 11.8766 0.47998 9.624V7.4155Z" fill="black"/>
<path fill-rule="evenodd" clip-rule="evenodd" d="M2.17878 15.3206C1.64916 14.9458 1.21559 14.4466 0.918428 13.8634C0.740079 13.5133 0.634286 13.1193 0.571533 12.6233L0.740006 12.134L1.15282 10.9351H2.42082H5.72036C6.42809 10.9351 7.1886 10.3926 7.41901 9.72347C7.64942 9.05431 7.26248 8.51184 6.55476 8.51184H1.88958L2.71521 6.11402H7.38039C9.4887 6.11402 10.6414 7.73002 9.95499 9.72347C9.51248 11.0086 8.41362 12.1369 7.1237 12.7764L8.25415 16.0595H6.91555C6.47514 16.0595 6.07778 16.0595 5.71704 16.0562L4.77932 13.3329H2.86317L2.17878 15.3206ZM13.2611 9.16623C13.6112 5.83532 11.1799 3.13509 7.8306 3.13509L7.95823 1.92075C11.9818 1.92075 14.9027 5.16466 14.4821 9.16623H13.2611ZM7.60753 5.25664C9.77863 5.25664 11.3547 7.00703 11.1277 9.16624H12.3488C12.6462 6.33637 10.5806 4.0423 7.73516 4.0423L7.60753 5.25664Z" fill="white"/>
<g clip-path="url(#clip0_114_848)">
<rect y="0.5" width="15.9752" height="15.9752" rx="4.2611" fill="white"/>
<path fill-rule="evenodd" clip-rule="evenodd" d="M2.88443 16.3738C2.37529 16.3068 1.96811 16.1955 1.60552 16.0108C1.17209 15.7899 0.782468 15.498 0.451416 15.1497L1.06017 12.2112L1.32074 10.9535H2.66405H6.15958C6.90934 10.9535 7.63504 10.3844 7.78048 9.68237C7.92591 8.98036 7.43601 8.41126 6.68625 8.41126H1.74397L2.26511 5.89574H7.2074C9.44093 5.89574 10.9003 7.59107 10.4671 9.68237C10.1878 11.0306 9.19001 12.2143 7.91777 12.8852L9.66906 16.472C9.29677 16.4752 8.88792 16.4752 8.43635 16.4752H6.98399L5.5162 13.469H3.48621L2.88443 16.3738ZM13.8875 9.09778C13.7673 5.60336 10.7934 2.77058 7.24525 2.77058L7.20142 1.49663C11.464 1.49663 15.0366 4.89978 15.1811 9.09778H13.8875ZM7.32172 4.99628C9.62178 4.99628 11.5495 6.83259 11.6275 9.09778H12.921C12.8189 6.129 10.2924 3.72233 7.27789 3.72233L7.32172 4.99628Z" fill="#366AFE"/>
</g>
<rect x="0.2" y="0.7" width="15.5752" height="15.5752" rx="4.2" stroke="white" stroke-width="0.4"/>
<defs>
<clipPath id="clip0_114_848">
<rect y="0.5" width="15.9752" height="15.9752" rx="4.4" fill="white"/>
</clipPath>
</defs>
</svg>
