<svg width="25" height="24" viewBox="0 0 25 24" fill="none" xmlns="http://www.w3.org/2000/svg">
    <path d="M1.61026 3.87804C1.25632 4.57267 1.08688 5.36157 1.00317 6.38618C0.91997 7.40445 0.91997 8.6816 0.919971 10.3592V10.3733V13.686V13.7001C0.91997 15.3777 0.91997 16.6548 1.00317 17.6731C1.08688 18.6977 1.25632 19.4866 1.61026 20.1812C2.21745 21.3729 3.18632 22.3418 4.37801 22.949C5.07264 23.3029 5.86154 23.4724 6.88615 23.5561C7.90441 23.6393 9.18153 23.6393 10.8591 23.6393H10.8732H14.186H14.2001C15.8777 23.6393 17.1548 23.6393 18.1731 23.5561C19.1977 23.4724 19.9866 23.3029 20.6812 22.949C21.8729 22.3418 22.8418 21.3729 23.449 20.1812C23.8029 19.4866 23.9723 18.6977 24.056 17.6731C24.1392 16.6548 24.1392 15.3777 24.1392 13.7001V13.686V10.3733V10.3591C24.1392 8.68157 24.1392 7.40444 24.056 6.38618C23.9723 5.36157 23.8029 4.57267 23.449 3.87804C22.8418 2.68635 21.8729 1.71748 20.6812 1.11029C19.9866 0.756354 19.1977 0.586911 18.1731 0.503196C17.1548 0.42 15.8776 0.420001 14.2 0.420001H14.186H10.8732H10.8592C9.18158 0.420001 7.90442 0.42 6.88615 0.503196C5.86154 0.586911 5.07264 0.756354 4.37801 1.11029C3.18632 1.71748 2.21745 2.68635 1.61026 3.87804Z" fill="black" stroke="url(#paint0_linear_504_1621)" stroke-width="0.6"/>
    <path fill-rule="evenodd" clip-rule="evenodd" d="M3.76816 22.2308C2.97374 21.6686 2.32339 20.9199 1.87764 20.045C1.61012 19.52 1.45143 18.9289 1.3573 18.1849L1.61001 17.451L2.22924 15.6527H4.13122H9.08054C10.1421 15.6527 11.2829 14.839 11.6285 13.8352C11.9741 12.8315 11.3937 12.0178 10.3321 12.0178H3.33437L4.57282 8.42104H11.5706C14.7331 8.42104 16.4621 10.845 15.4325 13.8352C14.7687 15.7629 13.1204 17.4554 11.1855 18.4147L12.8812 23.3393H10.8733C10.2127 23.3393 9.61666 23.3393 9.07555 23.3344L7.66899 19.2494H4.79476L3.76816 22.2308ZM20.3917 12.9993C20.9168 8.00299 17.2698 3.95263 12.246 3.95263L12.4374 2.13112C18.4728 2.13112 22.8541 6.99699 22.2232 12.9993H20.3917ZM11.9114 7.13497C15.168 7.13497 17.5321 9.76054 17.1917 12.9994H19.0232C19.4694 8.75455 16.371 5.31346 12.1028 5.31346L11.9114 7.13497Z" fill="white"/>
    <g clip-path="url(#clip0_504_1621)">
        <rect x="0.5" width="23.9628" height="23.9628" rx="6.39165" fill="white"/>
        <path fill-rule="evenodd" clip-rule="evenodd" d="M4.82658 23.8107C4.06288 23.7102 3.45211 23.5433 2.90822 23.2661C2.25807 22.9349 1.67364 22.4969 1.17706 21.9745L2.0902 17.5669L2.48105 15.6802H4.49601H9.73931C10.864 15.6802 11.9525 14.8266 12.1707 13.7736C12.3888 12.7205 11.654 11.8669 10.5293 11.8669H3.1159L3.89761 8.09361H11.311C14.6613 8.09361 16.8505 10.6366 16.2006 13.7736C15.7816 15.7959 14.285 17.5714 12.3766 18.5778L15.0035 23.9581C14.4451 23.9628 13.8318 23.9628 13.1545 23.9628H10.9759L8.77425 19.4535H5.72926L4.82658 23.8107ZM21.3312 12.8967C21.1509 7.65504 16.6901 3.40587 11.3678 3.40587L11.3021 1.49495C17.696 1.49495 23.0549 6.59967 23.2715 12.8967H21.3312ZM11.4825 6.74442C14.9326 6.74442 17.8242 9.49888 17.9411 12.8967H19.8815C19.7282 8.4435 15.9385 4.83349 11.4168 4.83349L11.4825 6.74442Z" fill="#00B2FF"/>
    </g>
    <rect x="0.8" y="0.3" width="23.3628" height="23.3628" rx="6.3" stroke="white" stroke-width="0.6"/>
    <defs>
        <linearGradient id="paint0_linear_504_1621" x1="1.21997" y1="0.720001" x2="23.8392" y2="23.3393" gradientUnits="userSpaceOnUse">
            <stop stop-color="#366AFE"/>
            <stop offset="1" stop-color="#00B3FF"/>
        </linearGradient>
        <clipPath id="clip0_504_1621">
            <rect x="0.5" width="23.9628" height="23.9628" rx="6.6" fill="white"/>
        </clipPath>
    </defs>
</svg>
