<svg width="24" height="24" viewBox="0 0 24 24" fill="none" xmlns="http://www.w3.org/2000/svg">
<g clip-path="url(#clip0_205_5496)">
<path d="M22.0691 5.03672L11.9999 -0.560059L1.9308 5.03672L8.33614 8.58682C9.25841 7.62665 10.5597 7.02022 11.9999 7.02022C13.4402 7.02022 14.7415 7.62665 15.6637 8.58682L22.0691 5.03672ZM9.47318 12.0737C9.47318 10.684 10.6102 9.54699 11.9999 9.54699C13.3897 9.54699 14.5267 10.684 14.5267 12.0737C14.5267 13.4635 13.3897 14.6005 11.9999 14.6005C10.6102 14.6005 9.47318 13.4635 9.47318 12.0737ZM10.7366 24.0001L0.629517 18.3906V7.1971L7.11066 10.7977C6.99695 11.202 6.94642 11.6316 6.94642 12.0737C6.94642 14.4236 8.55091 16.4071 10.7366 16.963V24.0001ZM13.2633 24.0001V16.963C15.449 16.4071 17.0535 14.4236 17.0535 12.0737C17.0535 11.6316 17.0029 11.202 16.8892 10.7977L23.3704 7.1971V18.3906L13.2633 24.0001Z" fill="#366AFE"/>
</g>
<defs>
<clipPath id="clip0_205_5496">
<rect width="24" height="24" fill="white"/>
</clipPath>
</defs>
</svg>
