<svg width="10" height="13" viewBox="0 0 10 13" fill="none" xmlns="http://www.w3.org/2000/svg">
    <path fill-rule="evenodd" clip-rule="evenodd" d="M2.83258 4.58313H6.66598V3.94456C6.66598 2.88599 5.80784 2.02786 4.74928 2.02786C3.69072 2.02786 2.83258 2.88599 2.83258 3.94456V4.58313ZM1.55478 4.58313C0.849239 4.58333 0.277344 5.15534 0.277344 5.86093V10.9721C0.277344 11.6778 0.849435 12.2499 1.55514 12.2499H7.94414C8.64985 12.2499 9.22194 11.6778 9.22194 10.9721V5.86093C9.22194 5.15522 8.64985 4.58313 7.94414 4.58313H7.94378V3.94456C7.94378 2.18029 6.51355 0.750061 4.74928 0.750061C2.98501 0.750061 1.55478 2.18029 1.55478 3.94456V4.58313ZM4.11074 7.77794C4.11074 7.42509 4.39679 7.13904 4.74964 7.13904C5.10249 7.13904 5.38854 7.42509 5.38854 7.77794V9.05574C5.38854 9.40859 5.10249 9.69464 4.74964 9.69464C4.39679 9.69464 4.11074 9.40859 4.11074 9.05574V7.77794Z" fill="#959CAE"/>
</svg>
