<svg width="148" height="40" viewBox="0 0 148 40" fill="none" xmlns="http://www.w3.org/2000/svg">
<rect x="2" width="40" height="40" rx="20" fill="black"/>
<path d="M3.85043 6.46339C3.26054 7.62112 2.97813 8.93594 2.83861 10.6436C2.69995 12.3407 2.69995 14.4693 2.69995 17.2653V17.2888V22.81V22.8334C2.69995 25.6294 2.69995 27.758 2.83861 29.4551C2.97813 31.1628 3.26054 32.4777 3.85043 33.6354C4.86242 35.6215 6.4772 37.2363 8.46335 38.2483C9.62107 38.8382 10.9359 39.1206 12.6436 39.2601C14.3407 39.3988 16.4693 39.3988 19.2653 39.3988H19.2887H24.81H24.8334C27.6294 39.3988 29.758 39.3988 31.4551 39.2601C33.1628 39.1206 34.4776 38.8382 35.6353 38.2483C37.6215 37.2363 39.2363 35.6215 40.2483 33.6354C40.8381 32.4777 41.1205 31.1628 41.2601 29.4551C41.3987 27.758 41.3987 25.6294 41.3987 22.8335V22.81V17.2888V17.2653C41.3987 14.4693 41.3987 12.3408 41.2601 10.6436C41.1205 8.93594 40.8381 7.62112 40.2483 6.46339C39.2363 4.47725 37.6215 2.86247 35.6353 1.85048C34.4776 1.26058 33.1628 0.978179 31.4551 0.838655C29.758 0.699995 27.6294 0.699996 24.8334 0.699997H24.81H19.2887H19.2653C16.4693 0.699996 14.3407 0.699995 12.6436 0.838655C10.9359 0.978179 9.62107 1.26058 8.46335 1.85048C6.4772 2.86247 4.86242 4.47725 3.85043 6.46339Z" fill="black" stroke="white"/>
<path fill-rule="evenodd" clip-rule="evenodd" d="M7.44682 37.0514C6.12278 36.1144 5.03886 34.8664 4.29595 33.4084C3.85008 32.5333 3.58559 31.5482 3.42871 30.3082L3.84989 29.085L4.88194 26.0878H8.05192H16.3008C18.0701 26.0878 19.9714 24.7316 20.5474 23.0587C21.1234 21.3858 20.1561 20.0296 18.3868 20.0296H6.72382L8.78791 14.0351H20.4509C25.7216 14.0351 28.6034 18.0751 26.8874 23.0587C25.7811 26.2716 23.0339 29.0923 19.8091 30.6911L22.6352 38.8988H19.2887C18.1877 38.8988 17.1943 38.8988 16.2924 38.8906L13.9482 32.0823H9.15781L7.44682 37.0514ZM35.153 21.6656C36.0282 13.3383 29.9499 6.58772 21.5768 6.58772L21.8959 3.55186C31.9549 3.55186 39.257 11.6616 38.2055 21.6656H35.153ZM21.0189 11.8916C26.4466 11.8916 30.3868 16.2676 29.8194 21.6656H32.872C33.6156 14.5909 28.4516 8.85576 21.338 8.85576L21.0189 11.8916Z" fill="url(#paint0_linear_99_366)"/>
<path d="M66.2326 28.9129C66.297 29.9007 66.4474 30.6631 66.6836 31.2H62.657C62.4422 30.7705 62.3026 30.1048 62.2382 29.2028L62.0127 26.1426C61.9268 25.2621 61.6798 24.6178 61.2718 24.2098C60.8638 23.8017 60.2302 23.5977 59.3712 23.5977H54.4426V31.2H50.416V9.29514H60.4021C61.8194 9.29514 63.0865 9.60654 64.2032 10.2293C65.3414 10.8521 66.2219 11.7111 66.8447 12.8064C67.4889 13.9016 67.811 15.1364 67.811 16.5109C67.811 17.8423 67.4352 19.0342 66.6836 20.0865C65.932 21.1173 64.9011 21.9012 63.5911 22.4381C65.03 23.0394 65.8138 24.1346 65.9427 25.7238L66.2326 28.9129ZM59.9511 20.2476C61.0678 20.2476 61.9698 19.904 62.657 19.2168C63.3657 18.5295 63.72 17.6276 63.72 16.5109C63.72 15.3727 63.3764 14.46 62.6892 13.7728C62.002 13.0855 61.0893 12.7419 59.9511 12.7419H54.4426V20.2476H59.9511Z" fill="white"/>
<path d="M71.2307 15.2223H75.0962V31.2H71.2307V15.2223ZM73.1634 12.7419C72.3903 12.7419 71.7353 12.4842 71.1984 11.9688C70.683 11.4319 70.4253 10.7769 70.4253 10.0038C70.4253 9.25219 70.683 8.61867 71.1984 8.10326C71.7353 7.56638 72.3903 7.29794 73.1634 7.29794C73.9151 7.29794 74.5593 7.56638 75.0962 8.10326C75.6331 8.61867 75.9015 9.25219 75.9015 10.0038C75.9015 10.7769 75.6331 11.4319 75.0962 11.9688C74.5593 12.4842 73.9151 12.7419 73.1634 12.7419Z" fill="white"/>
<path d="M87.6983 14.8358C89.5452 14.8358 91.0055 15.4371 92.0793 16.6397C93.153 17.8209 93.6899 19.4315 93.6899 21.4717V31.2H89.8244V22.0193C89.8244 20.7093 89.5345 19.7214 88.9546 19.0557C88.3963 18.3685 87.5587 18.0249 86.442 18.0249C85.2609 18.0249 84.3589 18.4329 83.7361 19.249C83.1133 20.0436 82.8019 21.214 82.8019 22.7602V31.2H78.9364V15.2223H82.7053V18.0893C83.1133 17.0585 83.7468 16.2639 84.6059 15.7055C85.4649 15.1257 86.4957 14.8358 87.6983 14.8358Z" fill="white"/>
<path d="M105.202 37.8359C102.839 37.8359 100.939 37.2883 99.4998 36.193C98.061 35.0978 97.2771 33.5945 97.1483 31.6832L100.853 31.3288C100.96 32.3811 101.4 33.1865 102.174 33.7448C102.947 34.3247 103.935 34.6146 105.137 34.6146C106.512 34.6146 107.564 34.1958 108.294 33.3583C109.024 32.5422 109.389 31.3825 109.389 29.8793V28.1075C109.046 28.8162 108.401 29.3961 107.456 29.8471C106.533 30.2766 105.513 30.4913 104.396 30.4913C102.914 30.4913 101.572 30.1584 100.37 29.4927C99.1885 28.8055 98.2543 27.8713 97.5671 26.6902C96.9013 25.4876 96.5685 24.1453 96.5685 22.6635C96.5685 21.1817 96.9121 19.8503 97.5993 18.6691C98.2865 17.488 99.2314 16.5645 100.434 15.8988C101.637 15.2116 102.99 14.868 104.493 14.868C105.588 14.868 106.608 15.0935 107.553 15.5445C108.498 15.9955 109.185 16.5645 109.615 17.2518V15.2223H113.255V29.0095C113.255 31.7584 112.535 33.9166 111.097 35.4843C109.679 37.052 107.714 37.8359 105.202 37.8359ZM105.04 27.27C106.372 27.27 107.467 26.8405 108.326 25.9815C109.207 25.101 109.647 23.995 109.647 22.6635C109.647 21.3321 109.207 20.2368 108.326 19.3778C107.467 18.5188 106.372 18.0893 105.04 18.0893C103.73 18.0893 102.635 18.5188 101.755 19.3778C100.896 20.2368 100.466 21.3321 100.466 22.6635C100.466 23.995 100.896 25.101 101.755 25.9815C102.614 26.8405 103.709 27.27 105.04 27.27Z" fill="white"/>
<path d="M131.27 25.5305H121.993L119.835 31.2H115.744L124.216 9.29514H129.305L137.648 31.2H133.364L131.27 25.5305ZM130.014 22.1804L126.696 13.2573L123.281 22.1804H130.014Z" fill="url(#paint1_linear_99_366)"/>
<path d="M140.927 9.29514H144.953V31.2H140.927V9.29514Z" fill="url(#paint2_linear_99_366)"/>
<defs>
<linearGradient id="paint0_linear_99_366" x1="3.42871" y1="3.55186" x2="38.7725" y2="38.4263" gradientUnits="userSpaceOnUse">
<stop stop-color="#366AFE"/>
<stop offset="1" stop-color="#00B3FF"/>
</linearGradient>
<linearGradient id="paint1_linear_99_366" x1="113.2" y1="13" x2="112.284" y2="36.5653" gradientUnits="userSpaceOnUse">
<stop stop-color="#366AFE"/>
<stop offset="1" stop-color="#00B3FF"/>
</linearGradient>
<linearGradient id="paint2_linear_99_366" x1="115.6" y1="7.2" x2="114.39" y2="30.7222" gradientUnits="userSpaceOnUse">
<stop stop-color="#366AFE"/>
<stop offset="1" stop-color="#00B3FF"/>
</linearGradient>
</defs>
</svg>
