<svg width="24" height="24" viewBox="0 0 24 24" fill="none" xmlns="http://www.w3.org/2000/svg">
<g clip-path="url(#clip0_205_5494)">
<path d="M20.01 20.85L20.85 20.01L18.6 17.76V14.4H17.4V18.24L20.01 20.85ZM18 24C16.34 24 14.9252 23.4148 13.7556 22.2444C12.586 21.074 12.0008 19.6592 12 18C12 16.34 12.5852 14.9252 13.7556 13.7556C14.926 12.586 16.3408 12.0008 18 12C19.66 12 21.0752 12.5852 22.2456 13.7556C23.416 14.926 24.0008 16.3408 24 18C24 19.66 23.4148 21.0752 22.2444 22.2456C21.074 23.416 19.6592 24.0008 18 24ZM4.8 7.2H16.8V4.8H4.8V7.2ZM10.41 21.6H0V0H21.6V10.44C21.02 10.16 20.4348 9.95 19.8444 9.81C19.254 9.67 18.6392 9.6 18 9.6C17.78 9.6 17.5748 9.6052 17.3844 9.6156C17.194 9.626 16.9992 9.6508 16.8 9.69V9.6H4.8V12H12.15C11.79 12.34 11.4652 12.71 11.1756 13.11C10.886 13.51 10.6308 13.94 10.41 14.4H4.8V16.8H9.69C9.65 17 9.6252 17.1952 9.6156 17.3856C9.606 17.576 9.6008 17.7808 9.6 18C9.6 18.66 9.66 19.2752 9.78 19.8456C9.9 20.416 10.11 21.0008 10.41 21.6Z" fill="#959CAE"/>
</g>
<defs>
<clipPath id="clip0_205_5494">
<rect width="24" height="24" fill="white"/>
</clipPath>
</defs>
</svg>
