<svg width="25" height="25" viewBox="0 0 25 25" fill="none" xmlns="http://www.w3.org/2000/svg">
<g clip-path="url(#clip0_205_5454)">
<path d="M15.0768 10.6766C14.7203 12.103 12.5002 11.3783 11.81 11.1828L12.4426 8.67511C13.1558 8.88216 15.4449 9.18124 15.0768 10.6766ZM11.4994 12.4711L10.8092 15.2434C11.6604 15.4619 14.2946 16.3017 14.6857 14.7372C15.0999 13.1038 12.3506 12.6782 11.4994 12.4711ZM23.6582 15.1168C22.1167 21.2825 15.8821 25.0325 9.71641 23.4911C3.55076 21.9497 -0.195798 15.715 1.34216 9.54934C1.70755 8.08395 2.35804 6.70489 3.25647 5.49094C4.15491 4.27698 5.28369 3.2519 6.57835 2.47425C7.87301 1.6966 9.30818 1.18161 10.8019 0.958702C12.2956 0.735791 13.8186 0.809322 15.2839 1.1751C21.4381 2.71651 25.1881 8.95118 23.6582 15.1168ZM15.0423 7.78937L15.56 5.71881L14.2946 5.43124L13.7885 7.42127C13.4549 7.34075 13.1213 7.26023 12.7762 7.19121L13.2824 5.15516L12.0285 4.85608L11.5109 6.91514C11.2348 6.84612 10.9587 6.7886 10.7057 6.71958L8.96871 6.28247L8.62362 7.62833C8.62362 7.62833 9.56687 7.84689 9.54387 7.85839C10.0615 7.98492 10.1535 8.30701 10.1305 8.59459L8.71564 14.2656C8.65813 14.4267 8.47408 14.6337 8.14049 14.5762C8.15199 14.5877 7.22024 14.3461 7.22024 14.3461L6.59907 15.784L8.23251 16.1981C8.5431 16.2786 8.84218 16.3592 9.14126 16.4282L8.61211 18.5217L9.87745 18.8438L10.3951 16.7618C10.7402 16.8538 11.0738 16.9343 11.3959 17.0263L10.8782 19.0854L12.1436 19.4075L12.6727 17.3139C14.8008 17.7165 16.4342 17.5555 17.1014 15.6115C17.6765 14.0586 17.1014 13.1383 15.9511 12.5516C16.7793 12.3331 17.4005 11.8155 17.573 10.6881C17.8031 9.15824 16.6298 8.34152 15.0423 7.78937Z" fill="#fff"/>
</g>
<defs>
<clipPath id="clip0_205_5454">
<rect width="24" height="24" fill="white" transform="translate(0.5 0.333252)"/>
</clipPath>
</defs>
</svg>
