<svg width="24" height="25" viewBox="0 0 24 25" fill="none" xmlns="http://www.w3.org/2000/svg">
<path d="M12 19.3333H14V6.33334L20.394 9.07334C20.574 9.1505 20.7274 9.27881 20.8351 9.44236C20.9428 9.60591 21.0002 9.79749 21 9.99334V19.3333H23V21.3333H1V19.3333H3V5.98334C2.99998 5.78985 3.05608 5.60052 3.16151 5.43828C3.26695 5.27605 3.41718 5.14789 3.594 5.06934L11.297 1.64634C11.3731 1.61255 11.4563 1.59828 11.5393 1.60482C11.6223 1.61136 11.7023 1.6385 11.7721 1.68379C11.8419 1.72908 11.8993 1.79108 11.9391 1.86416C11.9789 1.93725 11.9998 2.01912 12 2.10234V19.3333Z" fill="#959CAE"/>
</svg>
