<svg width="25" height="25" viewBox="0 0 25 25" fill="none" xmlns="http://www.w3.org/2000/svg">
<g clip-path="url(#clip0_205_5458)">
<path d="M9.18421 12.3334C9.77048 12.3334 10.3327 12.1005 10.7473 11.686C11.1618 11.2714 11.3947 10.7092 11.3947 10.1229C11.3947 9.53664 11.1618 8.97438 10.7473 8.55983C10.3327 8.14527 9.77048 7.91238 9.18421 7.91238C8.59794 7.91238 8.03569 8.14527 7.62113 8.55983C7.20658 8.97438 6.97368 9.53664 6.97368 10.1229C6.97368 10.7092 7.20658 11.2714 7.62113 11.686C8.03569 12.1005 8.59794 12.3334 9.18421 12.3334ZM12.5 0.175537L23 6.25448V18.4124L12.5 24.4913L2 18.4124V6.25448L12.5 0.175537ZM4.21053 7.52885V17.138L6.83221 18.6555L15.755 12.1124L20.7895 15.1342V7.52996L12.5 2.72869L4.21053 7.52885Z" fill="#366AFE"/>
</g>
<defs>
<clipPath id="clip0_205_5458">
<rect width="24" height="24" fill="white" transform="translate(0.5 0.333252)"/>
</clipPath>
</defs>
</svg>
