<svg width="70" height="70" viewBox="0 0 70 70" fill="none" xmlns="http://www.w3.org/2000/svg">
    <rect x="6.10352e-05" width="70" height="70" rx="35" fill="black"/>
    <path d="M39.9176 1.2251H30.2554H30.2144C25.3214 1.2251 21.5964 1.22509 18.6264 1.46775C15.6379 1.71192 13.337 2.20613 11.311 3.23844C7.83523 5.00942 5.00936 7.83529 3.23838 11.311C2.20607 13.3371 1.71186 15.638 1.46769 18.6265C1.22503 21.5964 1.22503 25.3214 1.22504 30.2144V30.2554V39.9176V39.9586C1.22503 44.8516 1.22503 48.5766 1.46769 51.5466C1.71186 54.5351 2.20606 56.836 3.23838 58.862C5.00936 62.3378 7.83523 65.1636 11.311 66.9346C13.337 67.9669 15.6379 68.4611 18.6264 68.7053C21.5964 68.948 25.3214 68.948 30.2145 68.948H30.2554H39.9175H39.9584C44.8515 68.948 48.5766 68.948 51.5465 68.7053C54.535 68.4611 56.8359 67.9669 58.862 66.9346C62.3377 65.1636 65.1636 62.3378 66.9346 58.862C67.9669 56.836 68.4611 54.5351 68.7052 51.5466C68.9479 48.5766 68.9479 44.8516 68.9479 39.9585V39.9176V30.2555V30.2146C68.9479 25.3215 68.9479 21.5964 68.7052 18.6265C68.4611 15.638 67.9669 13.3371 66.9346 11.311C65.1636 7.83529 62.3377 5.00942 58.862 3.23844C56.8359 2.20613 54.535 1.71192 51.5465 1.46775C48.5766 1.22509 44.8516 1.2251 39.9586 1.2251H39.9176Z" fill="black" stroke="url(#paint0_linear_285_2841)" stroke-width="1.75"/>
    <path fill-rule="evenodd" clip-rule="evenodd" d="M9.53201 64.84C7.21498 63.2002 5.31814 61.0163 4.01805 58.4648C3.23775 56.9333 2.77491 55.2093 2.50037 53.0393L3.23745 50.8987L5.04353 45.6534H10.591H25.0265C28.1228 45.6534 31.45 43.2802 32.4581 40.3526C33.4661 37.425 31.7733 35.0517 28.677 35.0517H8.26683L11.879 24.5612H32.2892C41.513 24.5612 46.556 31.6312 43.553 40.3526C41.617 45.9751 36.8095 50.9113 31.1661 53.7093L36.1119 68.0729H30.2554C28.3287 68.0729 26.5903 68.0729 25.0121 68.0586L20.9095 56.1439H12.5263L9.53201 64.84ZM58.0173 37.9148C59.549 23.3421 48.912 11.5286 34.259 11.5286L34.8174 6.21582C52.4207 6.21582 65.1994 20.4079 63.3593 37.9148H58.0173ZM33.2832 20.8104C42.7817 20.8104 49.677 28.4683 48.6841 37.9149H54.0261C55.3273 25.5342 46.2904 15.4977 33.8415 15.4977L33.2832 20.8104Z" fill="white"/>
    <g clip-path="url(#clip0_285_2841)">
        <rect x="6.10352e-05" width="69.8915" height="69.8915" rx="18.6423" fill="#101114"/>
        <path fill-rule="evenodd" clip-rule="evenodd" d="M12.6193 69.4478C10.3918 69.1547 8.61047 68.6679 7.02413 67.8596C5.12784 66.8934 3.42322 65.6161 1.97485 64.0922L4.63817 51.2365L5.77817 45.7338H11.6551H26.9481C30.2283 45.7338 33.4032 43.244 34.0395 40.1727C34.6758 37.1014 32.5325 34.6116 29.2523 34.6116H7.62981L9.90981 23.6062H31.5323C41.304 23.6062 47.689 31.0233 45.7935 40.1727C44.5715 46.0713 40.2062 51.2498 34.6402 54.1851L42.3022 69.8778C40.6734 69.8915 38.8846 69.8915 36.909 69.8915H30.555L24.1333 56.7392H15.2521L12.6193 69.4478ZM60.7576 37.6154C60.2316 22.3273 47.2211 9.93388 31.6977 9.93388L31.506 4.36035C50.1549 4.36035 65.785 19.2491 66.4169 37.6154H60.7576ZM32.0323 19.6713C42.0951 19.6713 50.529 27.7052 50.8699 37.6154H56.5292C56.0824 24.627 45.0289 14.0978 31.8406 14.0978L32.0323 19.6713Z" fill="url(#paint1_linear_285_2841)"/>
    </g>
    <rect x="0.875061" y="0.875" width="68.1415" height="68.1415" rx="18.375" stroke="white" stroke-width="1.75"/>
    <defs>
        <linearGradient id="paint0_linear_285_2841" x1="2.10004" y1="2.1001" x2="68.0729" y2="68.073" gradientUnits="userSpaceOnUse">
            <stop stop-color="#366AFE"/>
            <stop offset="1" stop-color="#00B3FF"/>
        </linearGradient>
        <linearGradient id="paint1_linear_285_2841" x1="1.97485" y1="4.36035" x2="67.4969" y2="68.7932" gradientUnits="userSpaceOnUse">
            <stop stop-color="#366AFE"/>
            <stop offset="1" stop-color="#00B3FF"/>
        </linearGradient>
        <clipPath id="clip0_285_2841">
            <rect x="6.10352e-05" width="69.8915" height="69.8915" rx="19.25" fill="white"/>
        </clipPath>
    </defs>
</svg>
