<svg width="24" height="24" viewBox="0 0 24 24" fill="none" xmlns="http://www.w3.org/2000/svg">
<g clip-path="url(#clip0_114_566)">
<path d="M15.542 15.0518L14.9969 15.6264C14.9969 15.6264 13.6996 16.9912 10.1598 13.2646C6.61994 9.53811 7.91728 8.17332 7.91728 8.17332L8.25988 7.81056C9.1068 6.92015 9.18706 5.4894 8.44795 4.44425L6.93859 2.30954C6.02338 1.01578 4.25647 0.844548 3.2083 1.94805L1.32758 3.92674C0.808888 4.47469 0.461494 5.18245 0.503421 5.96885C0.611233 7.98179 1.47133 12.3108 6.26776 17.3616C11.3553 22.7167 16.1289 22.9298 18.0803 22.737C18.6985 22.6761 19.2351 22.3438 19.6676 21.8872L21.3686 20.0962C22.5186 18.8874 22.1952 16.8136 20.7241 15.9676L18.4361 14.6497C17.4706 14.0954 16.2966 14.2578 15.542 15.0518Z" fill="#00B2FF"/>
</g>
<defs>
<clipPath id="clip0_114_566">
<rect width="23" height="23" fill="white" transform="translate(0.5 0.5)"/>
</clipPath>
</defs>
</svg>
