<svg width="50" height="51" viewBox="0 0 50 51" fill="none" xmlns="http://www.w3.org/2000/svg">
<g clip-path="url(#clip0_549_2626)">
<rect y="0.5" width="50" height="50" rx="25" fill="black"/>
<g clip-path="url(#clip1_549_2626)">
<rect y="0.5" width="49.9225" height="49.9225" rx="7" fill="#101114"/>
<path fill-rule="evenodd" clip-rule="evenodd" d="M9.01382 50.1055C7.42274 49.8962 6.15029 49.5485 5.01717 48.9711C3.66272 48.281 2.44517 47.3687 1.41064 46.2802L3.31301 37.0976L4.1273 33.1671H8.32513H19.2487C21.5917 33.1671 23.8595 31.3887 24.314 29.1949C24.7685 27.0011 23.2375 25.2227 20.8945 25.2227H5.44989L7.07847 17.3617H22.5231C29.5029 17.3617 34.0636 22.6596 32.7097 29.1949C31.8368 33.4082 28.7187 37.1071 24.7429 39.2038L30.2157 50.4127C29.0523 50.4225 27.7746 50.4225 26.3635 50.4225H21.8248L17.238 41.0281H10.8944L9.01382 50.1055ZM43.3983 27.3681C43.0226 16.448 33.7294 7.59556 22.6413 7.59556L22.5043 3.61447C35.8249 3.61447 46.9893 14.2493 47.4407 27.3681H43.3983ZM22.8803 14.5509C30.068 14.5509 36.0922 20.2893 36.3357 27.3681H40.3781C40.0589 18.0906 32.1635 10.5698 22.7433 10.5698L22.8803 14.5509Z" fill="url(#paint0_linear_549_2626)"/>
</g>
<rect x="0.625" y="1.125" width="48.6725" height="48.6725" rx="13.125" stroke="white" stroke-width="1.25"/>
</g>
<rect x="1" y="1.5" width="48" height="48" rx="24" stroke="white" stroke-width="2"/>
<g clip-path="url(#clip2_549_2626)">
<rect x="30" y="31" width="20" height="20" rx="10" fill="black"/>
<g clip-path="url(#clip3_549_2626)">
<rect x="30" y="31" width="19.969" height="19.969" rx="2.8" fill="#101114"/>
<path fill-rule="evenodd" clip-rule="evenodd" d="M33.6057 50.8422C32.9693 50.7585 32.4603 50.6194 32.0071 50.3885C31.4653 50.1124 30.9783 49.7475 30.5645 49.3121L31.3254 45.639L31.6511 44.0668H33.3302H37.6997C38.6369 44.0668 39.544 43.3555 39.7258 42.478C39.9076 41.6004 39.2952 40.8891 38.358 40.8891H32.1801L32.8316 37.7447H39.0094C41.8013 37.7447 43.6256 39.8638 43.084 42.478C42.7349 44.1633 41.4877 45.6428 39.8974 46.4815L42.0865 50.9651C41.6211 50.969 41.1101 50.969 40.5456 50.969H38.7302L36.8954 47.2112H34.3579L33.6057 50.8422ZM47.3595 41.7472C47.2092 37.3792 43.4919 33.8382 39.0566 33.8382L39.0019 32.2458C44.3301 32.2458 48.7959 36.4997 48.9764 41.7472H47.3595ZM39.1522 36.6203C42.0273 36.6203 44.437 38.9157 44.5344 41.7472H46.1513C46.0237 38.0363 42.8655 35.0279 39.0974 35.0279L39.1522 36.6203Z" fill="url(#paint1_linear_549_2626)"/>
</g>
<rect x="30.25" y="31.25" width="19.469" height="19.469" rx="5.25" stroke="white" stroke-width="0.5"/>
</g>
<rect x="30.5882" y="31.5882" width="18.8235" height="18.8235" rx="9.41176" stroke="white" stroke-width="1.17647"/>
<defs>
<linearGradient id="paint0_linear_549_2626" x1="1.41064" y1="3.61447" x2="48.2121" y2="49.638" gradientUnits="userSpaceOnUse">
<stop stop-color="#366AFE"/>
<stop offset="1" stop-color="#00B3FF"/>
</linearGradient>
<linearGradient id="paint1_linear_549_2626" x1="30.5645" y1="32.2458" x2="49.285" y2="50.6552" gradientUnits="userSpaceOnUse">
<stop stop-color="#366AFE"/>
<stop offset="1" stop-color="#00B3FF"/>
</linearGradient>
<clipPath id="clip0_549_2626">
<rect y="0.5" width="50" height="50" rx="25" fill="white"/>
</clipPath>
<clipPath id="clip1_549_2626">
<rect y="0.5" width="49.9225" height="49.9225" rx="13.75" fill="white"/>
</clipPath>
<clipPath id="clip2_549_2626">
<rect x="30" y="31" width="20" height="20" rx="10" fill="white"/>
</clipPath>
<clipPath id="clip3_549_2626">
<rect x="30" y="31" width="19.969" height="19.969" rx="5.5" fill="white"/>
</clipPath>
</defs>
</svg>
