<svg width="24" height="24" viewBox="0 0 24 24" fill="none" xmlns="http://www.w3.org/2000/svg">
<g clip-path="url(#clip0_205_5490)">
<path fill-rule="evenodd" clip-rule="evenodd" d="M10.6851 5.14273C10.3843 5.6643 9.95146 6.09745 9.4301 6.39862C8.90873 6.69979 8.31724 6.85835 7.71514 6.85835C7.11304 6.85835 6.52156 6.69979 6.00019 6.39862C5.47882 6.09745 5.04596 5.6643 4.74514 5.14273H1.71429C1.25963 5.14273 0.823594 4.96212 0.502103 4.64062C0.180612 4.31913 8.9407e-08 3.8831 8.9407e-08 3.42844C8.9407e-08 2.97378 0.180612 2.53775 0.502103 2.21626C0.823594 1.89477 1.25963 1.71416 1.71429 1.71416H4.74514C5.04596 1.19259 5.47882 0.75943 6.00019 0.458262C6.52156 0.157094 7.11304 -0.00146484 7.71514 -0.00146484C8.31724 -0.00146484 8.90873 0.157094 9.4301 0.458262C9.95146 0.75943 10.3843 1.19259 10.6851 1.71416H18.4286C19.9062 1.71416 21.3233 2.30114 22.3682 3.34599C23.413 4.39083 24 5.80795 24 7.28558C24 8.76322 23.413 10.1803 22.3682 11.2252C21.3233 12.27 19.9062 12.857 18.4286 12.857H17.5423C17.2416 13.379 16.8087 13.8125 16.2871 14.114C15.7656 14.4154 15.1738 14.5741 14.5714 14.5741C13.969 14.5741 13.3773 14.4154 12.8557 14.114C12.3342 13.8125 11.9013 13.379 11.6006 12.857H6C5.31801 12.857 4.66396 13.1279 4.18173 13.6102C3.69949 14.0924 3.42857 14.7465 3.42857 15.4284C3.42857 16.1104 3.69949 16.7645 4.18173 17.2467C4.66396 17.729 5.31801 17.9999 6 17.9999H6.45943C6.76036 17.4787 7.19317 17.0459 7.71436 16.745C8.23555 16.4441 8.82676 16.2857 9.42857 16.2857C10.0304 16.2857 10.6216 16.4441 11.1428 16.745C11.664 17.0459 12.0968 17.4787 12.3977 17.9999H18.8571V16.2856C18.8568 16.1158 18.9069 15.9498 19.0011 15.8086C19.0953 15.6673 19.2293 15.5572 19.3861 15.4922C19.5429 15.4272 19.7155 15.4103 19.8819 15.4435C20.0484 15.4767 20.2013 15.5585 20.3211 15.6787L23.7497 19.1073C23.9104 19.268 24.0007 19.486 24.0007 19.7133C24.0007 19.9406 23.9104 20.1586 23.7497 20.3193L20.3211 23.7479C20.2014 23.8679 20.0487 23.9498 19.8823 23.983C19.716 24.0163 19.5436 23.9995 19.3869 23.9347C19.2301 23.8699 19.0961 23.7601 19.0018 23.6191C18.9075 23.4781 18.8572 23.3123 18.8571 23.1427V21.4284H12.3994C12.0987 21.9504 11.6658 22.3839 11.1443 22.6854C10.6227 22.9868 10.031 23.1455 9.42857 23.1455C8.82618 23.1455 8.23442 22.9868 7.71288 22.6854C7.19133 22.3839 6.75841 21.9504 6.45771 21.4284H6C5.21207 21.4284 4.43185 21.2732 3.7039 20.9717C2.97595 20.6702 2.31451 20.2282 1.75736 19.6711C1.20021 19.1139 0.758251 18.4525 0.456723 17.7245C0.155195 16.9966 0 16.2164 0 15.4284C0 14.6405 0.155195 13.8603 0.456723 13.1323C0.758251 12.4044 1.20021 11.743 1.75736 11.1858C2.31451 10.6286 2.97595 10.1867 3.7039 9.88516C4.43185 9.58364 5.21207 9.42844 6 9.42844H11.6023C11.9032 8.90727 12.336 8.47449 12.8572 8.1736C13.3784 7.87271 13.9696 7.71431 14.5714 7.71431C15.1732 7.71431 15.7644 7.87271 16.2856 8.1736C16.8068 8.47449 17.2396 8.90727 17.5406 9.42844H18.4286C18.9969 9.42844 19.5419 9.20268 19.9438 8.80081C20.3457 8.39895 20.5714 7.8539 20.5714 7.28558C20.5714 6.71726 20.3457 6.17222 19.9438 5.77036C19.5419 5.36849 18.9969 5.14273 18.4286 5.14273H10.6851Z" fill="#366AFE"/>
</g>
<defs>
<clipPath id="clip0_205_5490">
<rect width="24" height="24" fill="white"/>
</clipPath>
</defs>
</svg>
