<svg width="10" height="13" viewBox="0 0 10 13" fill="none" xmlns="http://www.w3.org/2000/svg">
    <path fill-rule="evenodd" clip-rule="evenodd" d="M8.44414 4.58313C9.14985 4.58313 9.72194 5.15522 9.72194 5.86093V10.9721C9.72194 11.6778 9.14985 12.2499 8.44414 12.2499H2.05514C1.34943 12.2499 0.777344 11.6778 0.777344 10.9721V5.86093C0.777344 5.15522 1.34943 4.58313 2.05514 4.58313L2.05514 4.26384L2.19709 3C2.59987 1.69684 3.81419 0.750061 5.24964 0.750061C7.01391 0.750061 8.44414 2.18029 8.44414 3.94456L8.44414 4.58313ZM3.33294 4.58313H7.16634V3.94456C7.16634 2.88599 6.3082 2.02786 5.24964 2.02786C4.53451 2.02786 3.91086 2.4195 3.58146 3H2.19709L2.05514 4.26384L2.05514 4.58313H3.33294ZM4.61074 7.77794C4.61074 7.42509 4.89679 7.13904 5.24964 7.13904C5.60249 7.13904 5.88854 7.42509 5.88854 7.77794V9.05574C5.88854 9.40859 5.60249 9.69464 5.24964 9.69464C4.89679 9.69464 4.61074 9.40859 4.61074 9.05574V7.77794Z" fill="white"/>
</svg>
